<?xml version="1.0" encoding="UTF-8"?>
<svg xmlns="http://www.w3.org/2000/svg" xmlns:xlink="http://www.w3.org/1999/xlink" width="53px" height="45px" viewBox="0 0 53 45" version="1.1">
<g id="surface1">
<path style=" stroke:none;fill-rule:nonzero;fill:rgb(12.941177%,30.980393%,63.921571%);fill-opacity:1;" d="M 20.953125 -0.0234375 C 21.0625 -0.0234375 21.167969 -0.0234375 21.277344 -0.0234375 C 21.394531 -0.0234375 21.511719 -0.0234375 21.628906 -0.0234375 C 21.753906 -0.0234375 21.875 -0.0234375 22 -0.0273438 C 22.335938 -0.0273438 22.671875 -0.0273438 23.007812 -0.0273438 C 23.21875 -0.0273438 23.429688 -0.0273438 23.640625 -0.0273438 C 24.371094 -0.03125 25.105469 -0.03125 25.839844 -0.03125 C 26.523438 -0.03125 27.203125 -0.03125 27.886719 -0.0351562 C 28.476562 -0.0390625 29.0625 -0.0390625 29.648438 -0.0390625 C 30 -0.0390625 30.347656 -0.0390625 30.699219 -0.0390625 C 31.03125 -0.0429688 31.359375 -0.0429688 31.6875 -0.0390625 C 31.808594 -0.0390625 31.929688 -0.0390625 32.050781 -0.0429688 C 32.214844 -0.0429688 32.378906 -0.0429688 32.546875 -0.0429688 C 32.683594 -0.0429688 32.683594 -0.0429688 32.824219 -0.0429688 C 33.628906 0.0859375 34.246094 0.972656 34.75 1.558594 C 34.964844 1.804688 35.183594 2.042969 35.40625 2.28125 C 35.832031 2.738281 36.25 3.203125 36.667969 3.667969 C 36.792969 3.804688 36.917969 3.945312 37.042969 4.082031 C 37.226562 4.289062 37.414062 4.496094 37.597656 4.703125 C 37.976562 5.125 38.359375 5.542969 38.742188 5.960938 C 38.980469 6.222656 39.21875 6.480469 39.453125 6.746094 C 39.742188 7.070312 40.039062 7.390625 40.332031 7.707031 C 40.691406 8.09375 41.042969 8.480469 41.394531 8.871094 C 41.609375 9.109375 41.824219 9.347656 42.042969 9.582031 C 42.320312 9.886719 42.597656 10.1875 42.871094 10.496094 C 43.160156 10.820312 43.453125 11.140625 43.75 11.457031 C 44.105469 11.84375 44.460938 12.230469 44.8125 12.625 C 45.175781 13.03125 45.546875 13.429688 45.917969 13.832031 C 46.410156 14.371094 46.902344 14.910156 47.390625 15.453125 C 47.757812 15.859375 48.128906 16.261719 48.5 16.667969 C 48.992188 17.203125 49.484375 17.742188 49.972656 18.285156 C 50.191406 18.527344 50.40625 18.761719 50.625 19 C 50.914062 19.316406 51.207031 19.632812 51.496094 19.953125 C 51.550781 20.015625 51.609375 20.082031 51.667969 20.144531 C 51.785156 20.277344 51.898438 20.414062 52.007812 20.554688 C 52.167969 20.757812 52.167969 20.757812 52.375 20.949219 C 52.765625 21.359375 52.976562 21.78125 53.019531 22.347656 C 52.953125 23.378906 52.324219 24.125 51.628906 24.839844 C 51.523438 24.949219 51.417969 25.058594 51.3125 25.167969 C 51.261719 25.222656 51.210938 25.277344 51.15625 25.335938 C 50.949219 25.554688 50.75 25.78125 50.550781 26.011719 C 50.363281 26.230469 50.164062 26.441406 49.96875 26.65625 C 49.558594 27.101562 49.152344 27.550781 48.75 28 C 48.5625 28.207031 48.375 28.417969 48.1875 28.625 C 48.0625 28.761719 47.941406 28.898438 47.816406 29.035156 C 47.476562 29.417969 47.128906 29.796875 46.78125 30.175781 C 46.53125 30.449219 46.285156 30.722656 46.042969 31 C 45.761719 31.324219 45.472656 31.636719 45.183594 31.953125 C 44.8125 32.355469 44.449219 32.761719 44.082031 33.167969 C 43.894531 33.375 43.707031 33.582031 43.519531 33.792969 C 43.398438 33.929688 43.273438 34.066406 43.152344 34.203125 C 42.808594 34.585938 42.460938 34.964844 42.113281 35.34375 C 41.863281 35.617188 41.617188 35.886719 41.375 36.167969 C 41.09375 36.488281 40.804688 36.804688 40.515625 37.121094 C 40.144531 37.519531 39.78125 37.925781 39.417969 38.332031 C 39.230469 38.542969 39.042969 38.75 38.851562 38.960938 C 38.730469 39.09375 38.609375 39.230469 38.484375 39.371094 C 38.140625 39.75 37.796875 40.132812 37.449219 40.511719 C 37.199219 40.78125 36.949219 41.054688 36.707031 41.332031 C 36.429688 41.65625 36.140625 41.972656 35.847656 42.285156 C 35.414062 42.757812 34.984375 43.234375 34.558594 43.714844 C 34.496094 43.785156 34.433594 43.855469 34.371094 43.925781 C 34.316406 43.988281 34.257812 44.050781 34.203125 44.117188 C 34.136719 44.1875 34.070312 44.257812 34 44.332031 C 33.941406 44.414062 33.941406 44.414062 33.878906 44.496094 C 33.636719 44.796875 33.445312 44.972656 33.0625 45.0625 C 32.722656 45.089844 32.386719 45.09375 32.046875 45.089844 C 31.914062 45.089844 31.785156 45.089844 31.65625 45.09375 C 31.300781 45.097656 30.949219 45.097656 30.597656 45.09375 C 30.304688 45.09375 30.007812 45.09375 29.714844 45.097656 C 29.019531 45.097656 28.324219 45.097656 27.628906 45.097656 C 26.910156 45.09375 26.195312 45.097656 25.480469 45.101562 C 24.863281 45.105469 24.246094 45.105469 23.628906 45.105469 C 23.261719 45.105469 22.894531 45.105469 22.527344 45.109375 C 22.183594 45.113281 21.835938 45.109375 21.492188 45.105469 C 21.363281 45.105469 21.238281 45.105469 21.113281 45.109375 C 20.160156 45.121094 20.160156 45.121094 19.761719 44.816406 C 19.574219 44.609375 19.410156 44.398438 19.25 44.167969 C 19.164062 44.070312 19.078125 43.976562 18.988281 43.882812 C 18.953125 43.84375 18.914062 43.800781 18.875 43.757812 C 18.835938 43.71875 18.800781 43.675781 18.761719 43.636719 C 18.675781 43.542969 18.589844 43.449219 18.503906 43.359375 C 18.460938 43.3125 18.417969 43.265625 18.375 43.21875 C 17.902344 42.707031 17.429688 42.191406 16.964844 41.671875 C 16.628906 41.300781 16.292969 40.933594 15.953125 40.566406 C 15.703125 40.296875 15.453125 40.023438 15.207031 39.75 C 14.839844 39.335938 14.464844 38.929688 14.085938 38.523438 C 13.570312 37.964844 13.054688 37.40625 12.546875 36.839844 C 12.175781 36.425781 11.796875 36.015625 11.421875 35.609375 C 10.902344 35.050781 10.386719 34.488281 9.878906 33.921875 C 9.507812 33.507812 9.132812 33.101562 8.753906 32.691406 C 8.238281 32.132812 7.722656 31.570312 7.214844 31.003906 C 6.878906 30.632812 6.542969 30.265625 6.203125 29.902344 C 5.953125 29.628906 5.703125 29.359375 5.457031 29.082031 C 5.089844 28.671875 4.714844 28.265625 4.335938 27.859375 C 3.820312 27.300781 3.304688 26.738281 2.796875 26.171875 C 2.507812 25.851562 2.21875 25.535156 1.925781 25.21875 C 1.886719 25.171875 1.84375 25.128906 1.800781 25.082031 C 1.589844 24.851562 1.375 24.625 1.164062 24.394531 C 0.941406 24.15625 0.71875 23.910156 0.5 23.667969 C 0.425781 23.585938 0.425781 23.585938 0.351562 23.503906 C 0.0898438 23.179688 0.0195312 22.878906 -0.0273438 22.476562 C 0.0507812 21.84375 0.46875 21.398438 0.902344 20.957031 C 1.007812 20.847656 1.113281 20.738281 1.214844 20.628906 C 1.265625 20.578125 1.316406 20.527344 1.367188 20.472656 C 1.519531 20.3125 1.664062 20.152344 1.808594 19.984375 C 2.046875 19.707031 2.292969 19.4375 2.542969 19.167969 C 2.792969 18.894531 3.042969 18.621094 3.285156 18.339844 C 3.664062 17.902344 4.0625 17.480469 4.453125 17.054688 C 4.929688 16.542969 5.402344 16.027344 5.871094 15.503906 C 6.242188 15.089844 6.617188 14.683594 6.996094 14.273438 C 7.234375 14.015625 7.476562 13.753906 7.714844 13.496094 C 7.75 13.453125 7.789062 13.414062 7.828125 13.371094 C 7.902344 13.289062 7.976562 13.207031 8.054688 13.125 C 8.242188 12.914062 8.433594 12.707031 8.625 12.5 C 8.703125 12.417969 8.777344 12.332031 8.855469 12.25 C 17.5625 2.75 17.5625 2.75 17.675781 2.625 C 17.753906 2.542969 17.828125 2.457031 17.90625 2.375 C 18.097656 2.164062 18.292969 1.953125 18.484375 1.746094 C 18.523438 1.703125 18.5625 1.660156 18.601562 1.617188 C 18.679688 1.53125 18.757812 1.449219 18.832031 1.363281 C 19.015625 1.164062 19.199219 0.964844 19.375 0.757812 C 19.4375 0.683594 19.5 0.609375 19.566406 0.53125 C 19.652344 0.433594 19.652344 0.433594 19.734375 0.332031 C 20.089844 0.0117188 20.492188 -0.0195312 20.953125 -0.0234375 Z M 20.953125 -0.0234375 "/>
<path style=" stroke:none;fill-rule:nonzero;fill:rgb(98.823529%,98.823529%,99.215686%);fill-opacity:1;" d="M 19.324219 13.738281 C 19.414062 13.738281 19.414062 13.738281 19.503906 13.738281 C 19.566406 13.738281 19.625 13.738281 19.691406 13.738281 C 19.898438 13.738281 20.109375 13.738281 20.320312 13.742188 C 20.46875 13.742188 20.617188 13.742188 20.765625 13.742188 C 21.171875 13.742188 21.582031 13.742188 21.988281 13.742188 C 22.414062 13.742188 22.835938 13.742188 23.261719 13.742188 C 24.066406 13.742188 24.871094 13.742188 25.675781 13.742188 C 26.59375 13.746094 27.511719 13.746094 28.425781 13.746094 C 30.3125 13.746094 32.199219 13.75 34.082031 13.75 C 34.082031 14.851562 34.082031 15.949219 34.082031 17.082031 C 32.242188 17.082031 30.398438 17.082031 28.5 17.082031 C 28.5 18.183594 28.5 19.285156 28.5 20.417969 C 29.011719 20.402344 29.523438 20.386719 30.050781 20.371094 C 30.210938 20.367188 30.375 20.363281 30.539062 20.359375 C 30.667969 20.355469 30.796875 20.347656 30.925781 20.34375 C 30.992188 20.34375 31.058594 20.34375 31.125 20.339844 C 31.410156 20.328125 31.59375 20.3125 31.8125 20.121094 C 31.941406 19.964844 31.941406 19.964844 32.050781 19.808594 C 32.226562 19.59375 32.410156 19.511719 32.679688 19.476562 C 33.097656 19.472656 33.390625 19.507812 33.75 19.75 C 34.097656 20.132812 34.199219 20.371094 34.191406 20.878906 C 34.144531 21.273438 34 21.59375 33.707031 21.867188 C 33.332031 22.113281 32.941406 22.164062 32.5 22.082031 C 32.21875 21.933594 32.21875 21.933594 32 21.75 C 31.921875 21.6875 31.921875 21.6875 31.84375 21.625 C 31.75 21.5 31.75 21.5 31.75 21.167969 C 28.257812 21.167969 24.765625 21.167969 21.167969 21.167969 C 21.140625 21.304688 21.113281 21.441406 21.082031 21.582031 C 20.867188 21.832031 20.589844 22.0625 20.257812 22.101562 C 19.789062 22.117188 19.4375 22.074219 19.082031 21.75 C 18.78125 21.359375 18.6875 20.9375 18.707031 20.449219 C 18.78125 20.105469 18.980469 19.882812 19.25 19.667969 C 19.640625 19.425781 20.058594 19.425781 20.5 19.5 C 20.878906 19.707031 21.058594 19.949219 21.25 20.332031 C 22.296875 20.359375 23.339844 20.386719 24.417969 20.417969 C 24.417969 19.316406 24.417969 18.214844 24.417969 17.082031 C 22.574219 17.082031 20.730469 17.082031 18.832031 17.082031 C 18.832031 16.546875 18.828125 16.015625 18.828125 15.464844 C 18.828125 15.292969 18.828125 15.125 18.824219 14.953125 C 18.824219 14.820312 18.824219 14.683594 18.824219 14.550781 C 18.824219 14.484375 18.824219 14.414062 18.824219 14.339844 C 18.824219 14.171875 18.828125 14.003906 18.832031 13.832031 C 18.972656 13.695312 19.140625 13.738281 19.324219 13.738281 Z M 19.324219 13.738281 "/>
<path style=" stroke:none;fill-rule:nonzero;fill:rgb(97.647059%,98.039216%,98.823529%);fill-opacity:1;" d="M 18.167969 23.75 C 18.5 23.914062 18.726562 24.097656 18.917969 24.417969 C 18.917969 24.472656 18.917969 24.527344 18.917969 24.582031 C 18.976562 24.582031 19.039062 24.582031 19.101562 24.582031 C 19.28125 24.578125 19.457031 24.578125 19.636719 24.582031 C 19.910156 24.585938 19.910156 24.585938 20.15625 24.566406 C 20.546875 24.558594 20.753906 24.597656 21.050781 24.863281 C 21.191406 25.023438 21.324219 25.191406 21.453125 25.359375 C 21.484375 25.40625 21.519531 25.453125 21.554688 25.5 C 21.667969 25.667969 21.667969 25.667969 21.769531 25.894531 C 21.949219 26.230469 22.125 26.519531 22.507812 26.636719 C 23.058594 26.730469 23.617188 26.714844 24.171875 26.707031 C 24.355469 26.707031 24.539062 26.710938 24.71875 26.710938 C 25.101562 26.714844 25.480469 26.710938 25.863281 26.707031 C 26.347656 26.703125 26.835938 26.707031 27.324219 26.714844 C 27.699219 26.71875 28.074219 26.714844 28.449219 26.714844 C 28.628906 26.714844 28.808594 26.714844 28.988281 26.71875 C 29.992188 26.765625 29.992188 26.765625 30.871094 26.371094 C 31.09375 26.132812 31.257812 25.867188 31.417969 25.582031 C 31.960938 24.707031 31.960938 24.707031 32.3125 24.589844 C 32.574219 24.566406 32.820312 24.570312 33.082031 24.582031 C 33.269531 24.582031 33.457031 24.582031 33.644531 24.578125 C 33.792969 24.578125 33.9375 24.582031 34.082031 24.582031 C 34.105469 24.519531 34.128906 24.457031 34.15625 24.390625 C 34.285156 24.082031 34.449219 23.890625 34.75 23.75 C 35.226562 23.667969 35.679688 23.660156 36.09375 23.9375 C 36.371094 24.203125 36.480469 24.351562 36.527344 24.734375 C 36.535156 25.253906 36.535156 25.601562 36.167969 26 C 35.832031 26.296875 35.535156 26.359375 35.089844 26.351562 C 34.710938 26.3125 34.476562 26.144531 34.21875 25.875 C 34.082031 25.667969 34.082031 25.667969 34.082031 25.417969 C 33.164062 25.3125 33.164062 25.3125 32.335938 25.625 C 32.050781 25.933594 31.828125 26.28125 31.625 26.644531 C 31.582031 26.707031 31.542969 26.769531 31.5 26.832031 C 31.46875 26.882812 31.441406 26.933594 31.410156 26.984375 C 31.230469 27.238281 31.101562 27.390625 30.792969 27.46875 C 30.53125 27.484375 30.28125 27.480469 30.019531 27.472656 C 29.929688 27.472656 29.835938 27.472656 29.738281 27.472656 C 29.441406 27.46875 29.140625 27.460938 28.84375 27.453125 C 28.640625 27.449219 28.4375 27.449219 28.234375 27.445312 C 27.742188 27.4375 27.246094 27.429688 26.75 27.417969 C 27.210938 28.203125 27.210938 28.203125 27.886719 28.777344 C 28.101562 28.808594 28.28125 28.800781 28.496094 28.777344 C 28.597656 28.773438 28.597656 28.773438 28.703125 28.773438 C 28.902344 28.757812 29.0625 28.738281 29.25 28.667969 C 29.453125 28.429688 29.453125 28.429688 29.582031 28.167969 C 29.851562 27.925781 30.144531 27.8125 30.503906 27.792969 C 30.960938 27.847656 31.292969 28.0625 31.582031 28.417969 C 31.75 28.921875 31.75 29.480469 31.53125 29.964844 C 31.199219 30.304688 30.898438 30.429688 30.425781 30.46875 C 29.992188 30.457031 29.777344 30.285156 29.472656 29.984375 C 29.332031 29.832031 29.332031 29.832031 29.222656 29.6875 C 29.046875 29.53125 29.046875 29.53125 28.582031 29.582031 C 28.554688 30.105469 28.527344 30.628906 28.5 31.167969 C 27.152344 31.167969 25.804688 31.167969 24.417969 31.167969 C 24.417969 30.644531 24.417969 30.121094 24.417969 29.582031 C 24.167969 29.582031 23.921875 29.582031 23.667969 29.582031 C 23.648438 29.644531 23.628906 29.707031 23.609375 29.769531 C 23.476562 30.046875 23.332031 30.164062 23.082031 30.332031 C 22.648438 30.476562 22.238281 30.46875 21.808594 30.324219 C 21.523438 30.125 21.398438 29.980469 21.25 29.667969 C 21.171875 29.140625 21.234375 28.707031 21.5 28.25 C 21.863281 27.90625 22.15625 27.800781 22.660156 27.808594 C 23.046875 27.863281 23.28125 28.109375 23.53125 28.386719 C 23.667969 28.582031 23.667969 28.582031 23.667969 28.75 C 24.214844 28.75 24.765625 28.75 25.332031 28.75 C 25.386719 28.640625 25.441406 28.53125 25.5 28.417969 C 25.613281 28.253906 25.726562 28.09375 25.84375 27.9375 C 25.902344 27.855469 25.964844 27.773438 26.027344 27.6875 C 26.074219 27.625 26.117188 27.5625 26.167969 27.5 C 26.117188 27.503906 26.066406 27.503906 26.011719 27.507812 C 25.476562 27.527344 24.945312 27.539062 24.410156 27.542969 C 24.210938 27.546875 24.011719 27.550781 23.8125 27.558594 C 22.210938 27.625 22.210938 27.625 21.722656 27.28125 C 21.390625 26.949219 21.15625 26.578125 20.933594 26.171875 C 20.757812 25.867188 20.574219 25.554688 20.230469 25.4375 C 20.171875 25.433594 20.109375 25.433594 20.046875 25.433594 C 19.980469 25.429688 19.914062 25.429688 19.847656 25.425781 C 19.746094 25.425781 19.746094 25.425781 19.640625 25.425781 C 19.570312 25.425781 19.5 25.421875 19.429688 25.421875 C 19.257812 25.417969 19.085938 25.417969 18.917969 25.417969 C 18.894531 25.480469 18.871094 25.542969 18.847656 25.609375 C 18.707031 25.929688 18.53125 26.042969 18.25 26.25 C 17.867188 26.378906 17.523438 26.414062 17.148438 26.257812 C 16.773438 26.042969 16.546875 25.84375 16.417969 25.417969 C 16.363281 25 16.367188 24.683594 16.550781 24.300781 C 17.035156 23.765625 17.460938 23.644531 18.167969 23.75 Z M 18.167969 23.75 "/>
<path style=" stroke:none;fill-rule:nonzero;fill:rgb(96.470588%,96.862745%,98.431373%);fill-opacity:1;" d="M 14.515625 19.0625 C 14.832031 19.210938 15.085938 19.347656 15.25 19.667969 C 15.25 19.75 15.25 19.832031 15.25 19.917969 C 15.332031 19.902344 15.332031 19.902344 15.414062 19.890625 C 16.921875 19.679688 16.921875 19.679688 17.457031 20.066406 C 17.820312 20.449219 18.097656 20.886719 18.351562 21.34375 C 18.425781 21.464844 18.425781 21.464844 18.5 21.582031 C 18.546875 21.675781 18.546875 21.675781 18.59375 21.765625 C 18.804688 22.117188 18.964844 22.304688 19.371094 22.40625 C 19.742188 22.445312 20.117188 22.445312 20.492188 22.441406 C 20.636719 22.445312 20.78125 22.445312 20.925781 22.449219 C 21.316406 22.457031 21.707031 22.457031 22.097656 22.457031 C 22.34375 22.460938 22.589844 22.460938 22.832031 22.464844 C 23.691406 22.46875 24.546875 22.472656 25.402344 22.472656 C 26.195312 22.472656 26.992188 22.480469 27.785156 22.492188 C 28.472656 22.5 29.15625 22.503906 29.839844 22.503906 C 30.25 22.503906 30.65625 22.507812 31.0625 22.515625 C 32.820312 22.632812 32.820312 22.632812 34.371094 22.007812 C 34.6875 21.652344 34.894531 21.269531 35.082031 20.832031 C 35.441406 20.121094 35.441406 20.121094 35.75 19.917969 C 36.160156 19.84375 36.574219 19.84375 36.988281 19.859375 C 37.222656 19.867188 37.4375 19.871094 37.667969 19.832031 C 37.878906 19.605469 37.878906 19.605469 38 19.332031 C 38.292969 19.105469 38.597656 19.007812 38.964844 18.957031 C 39.371094 19.019531 39.667969 19.144531 39.945312 19.460938 C 40.195312 19.84375 40.234375 20.21875 40.167969 20.667969 C 40.027344 21.058594 39.84375 21.265625 39.5 21.5 C 39.132812 21.621094 38.800781 21.652344 38.417969 21.582031 C 38.148438 21.425781 37.933594 21.25 37.75 21 C 37.75 20.890625 37.75 20.78125 37.75 20.667969 C 36.832031 20.558594 36.832031 20.558594 36 20.875 C 35.742188 21.144531 35.542969 21.441406 35.347656 21.753906 C 35.308594 21.8125 35.269531 21.875 35.230469 21.9375 C 35.125 22.101562 35.023438 22.269531 34.929688 22.4375 C 34.714844 22.789062 34.488281 23.152344 34.09375 23.3125 C 33.652344 23.417969 33.199219 23.398438 32.75 23.394531 C 32.597656 23.394531 32.445312 23.398438 32.292969 23.398438 C 31.886719 23.40625 31.476562 23.402344 31.070312 23.402344 C 30.726562 23.398438 30.382812 23.402344 30.042969 23.402344 C 29.234375 23.40625 28.425781 23.40625 27.621094 23.398438 C 26.789062 23.394531 25.957031 23.398438 25.125 23.40625 C 24.410156 23.414062 23.695312 23.414062 22.980469 23.410156 C 22.554688 23.410156 22.128906 23.410156 21.699219 23.414062 C 21.300781 23.417969 20.898438 23.417969 20.496094 23.410156 C 20.351562 23.410156 20.203125 23.410156 20.058594 23.414062 C 18.984375 23.433594 18.984375 23.433594 18.59375 23.125 C 18.257812 22.789062 17.996094 22.40625 17.75 22 C 17.703125 21.925781 17.65625 21.851562 17.609375 21.773438 C 17.542969 21.667969 17.480469 21.558594 17.417969 21.449219 C 17.214844 21.109375 17.03125 20.8125 16.640625 20.6875 C 16.171875 20.613281 15.71875 20.628906 15.25 20.667969 C 15.242188 20.730469 15.230469 20.792969 15.222656 20.859375 C 15.144531 21.167969 15.015625 21.289062 14.769531 21.484375 C 14.414062 21.671875 14.054688 21.652344 13.667969 21.582031 C 13.238281 21.367188 12.984375 21.121094 12.832031 20.667969 C 12.789062 20.140625 12.855469 19.769531 13.167969 19.332031 C 13.578125 18.960938 13.996094 18.882812 14.515625 19.0625 Z M 14.515625 19.0625 "/>
<path style=" stroke:none;fill-rule:nonzero;fill:rgb(96.862745%,97.254902%,98.431373%);fill-opacity:1;" d="M 24.699219 23.765625 C 24.9375 23.929688 25.089844 24.09375 25.25 24.332031 C 25.25 24.386719 25.25 24.441406 25.25 24.5 C 26.074219 24.5 26.898438 24.5 27.75 24.5 C 27.804688 24.363281 27.859375 24.226562 27.917969 24.082031 C 28.308594 23.722656 28.625 23.636719 29.144531 23.644531 C 29.542969 23.691406 29.769531 23.929688 30.027344 24.21875 C 30.289062 24.585938 30.3125 24.890625 30.25 25.332031 C 30.105469 25.691406 29.917969 25.9375 29.609375 26.167969 C 29.113281 26.316406 28.679688 26.34375 28.214844 26.105469 C 28.023438 25.9375 27.878906 25.796875 27.75 25.582031 C 27.75 25.527344 27.75 25.472656 27.75 25.417969 C 26.925781 25.417969 26.101562 25.417969 25.25 25.417969 C 25.167969 25.621094 25.167969 25.621094 25.082031 25.832031 C 24.699219 26.1875 24.382812 26.285156 23.867188 26.277344 C 23.515625 26.230469 23.257812 26.074219 23 25.832031 C 22.742188 25.414062 22.660156 24.984375 22.75 24.5 C 23.132812 23.679688 23.867188 23.472656 24.699219 23.765625 Z M 24.699219 23.765625 "/>
<path style=" stroke:none;fill-rule:nonzero;fill:rgb(14.901961%,30.19608%,58.431375%);fill-opacity:1;" d="M 14.417969 19.667969 C 14.625 19.796875 14.625 19.796875 14.75 20 C 14.796875 20.285156 14.796875 20.285156 14.75 20.582031 C 14.546875 20.863281 14.425781 20.980469 14.082031 21.050781 C 13.742188 20.980469 13.621094 20.863281 13.417969 20.582031 C 13.363281 20.253906 13.367188 20.082031 13.542969 19.796875 C 13.835938 19.613281 14.078125 19.601562 14.417969 19.667969 Z M 14.417969 19.667969 "/>
<path style=" stroke:none;fill-rule:nonzero;fill:rgb(16.470589%,32.156864%,59.607846%);fill-opacity:1;" d="M 35.25 24.285156 C 35.570312 24.347656 35.703125 24.417969 35.917969 24.667969 C 35.996094 25 35.96875 25.25 35.792969 25.542969 C 35.5 25.71875 35.25 25.746094 34.917969 25.667969 C 34.667969 25.453125 34.597656 25.320312 34.535156 25 C 34.613281 24.582031 34.832031 24.363281 35.25 24.285156 Z M 35.25 24.285156 "/>
<path style=" stroke:none;fill-rule:nonzero;fill:rgb(17.254902%,33.725491%,62.352943%);fill-opacity:1;" d="M 32.964844 20.035156 C 33.25 20.082031 33.25 20.082031 33.453125 20.207031 C 33.636719 20.5 33.648438 20.746094 33.582031 21.082031 C 33.453125 21.292969 33.453125 21.292969 33.25 21.417969 C 32.964844 21.464844 32.964844 21.464844 32.667969 21.417969 C 32.386719 21.210938 32.269531 21.09375 32.199219 20.75 C 32.292969 20.300781 32.515625 20.105469 32.964844 20.035156 Z M 32.964844 20.035156 "/>
<path style=" stroke:none;fill-rule:nonzero;fill:rgb(16.470589%,33.333334%,62.352943%);fill-opacity:1;" d="M 22.417969 28.449219 C 22.757812 28.519531 22.878906 28.640625 23.082031 28.917969 C 23.140625 29.230469 23.105469 29.371094 22.957031 29.65625 C 22.707031 29.871094 22.566406 29.894531 22.242188 29.875 C 22.082031 29.832031 22.082031 29.832031 21.875 29.65625 C 21.726562 29.371094 21.691406 29.230469 21.75 28.917969 C 21.953125 28.640625 22.078125 28.519531 22.417969 28.449219 Z M 22.417969 28.449219 "/>
<path style=" stroke:none;fill-rule:nonzero;fill:rgb(17.254902%,33.725491%,61.960787%);fill-opacity:1;" d="M 29.25 24.332031 C 29.449219 24.46875 29.449219 24.46875 29.582031 24.667969 C 29.628906 24.992188 29.636719 25.167969 29.453125 25.449219 C 29.183594 25.628906 28.992188 25.667969 28.667969 25.667969 C 28.390625 25.492188 28.339844 25.359375 28.25 25.046875 C 28.25 24.75 28.25 24.75 28.402344 24.511719 C 28.699219 24.21875 28.847656 24.230469 29.25 24.332031 Z M 29.25 24.332031 "/>
<path style=" stroke:none;fill-rule:nonzero;fill:rgb(17.254902%,34.117648%,63.921571%);fill-opacity:1;" d="M 20.25 20.167969 C 20.453125 20.308594 20.453125 20.308594 20.582031 20.5 C 20.636719 20.8125 20.605469 20.960938 20.457031 21.238281 C 20.203125 21.453125 20.066406 21.472656 19.742188 21.449219 C 19.582031 21.417969 19.582031 21.417969 19.375 21.292969 C 19.199219 20.996094 19.171875 20.75 19.25 20.417969 C 19.550781 20.042969 19.800781 20.035156 20.25 20.167969 Z M 20.25 20.167969 "/>
<path style=" stroke:none;fill-rule:nonzero;fill:rgb(14.509805%,29.803923%,57.254905%);fill-opacity:1;" d="M 39.167969 19.667969 C 39.417969 19.832031 39.417969 19.832031 39.582031 20.082031 C 39.609375 20.324219 39.582031 20.523438 39.5 20.75 C 39.304688 20.988281 39.183594 20.996094 38.875 21.035156 C 38.582031 21 38.582031 21 38.378906 20.875 C 38.195312 20.582031 38.183594 20.335938 38.25 20 C 38.484375 19.621094 38.742188 19.597656 39.167969 19.667969 Z M 39.167969 19.667969 "/>
<path style=" stroke:none;fill-rule:nonzero;fill:rgb(15.686275%,32.156864%,61.176473%);fill-opacity:1;" d="M 18.082031 24.417969 C 18.339844 24.59375 18.40625 24.6875 18.464844 24.996094 C 18.398438 25.34375 18.285156 25.460938 18 25.667969 C 17.671875 25.71875 17.5 25.71875 17.214844 25.542969 C 17.054688 25.289062 17.03125 25.121094 17.046875 24.824219 C 17.082031 24.667969 17.082031 24.667969 17.253906 24.453125 C 17.578125 24.296875 17.742188 24.316406 18.082031 24.417969 Z M 18.082031 24.417969 "/>
<path style=" stroke:none;fill-rule:nonzero;fill:rgb(16.862746%,34.117648%,63.529414%);fill-opacity:1;" d="M 24.175781 24.292969 C 24.332031 24.332031 24.332031 24.332031 24.542969 24.511719 C 24.6875 24.789062 24.710938 24.941406 24.667969 25.25 C 24.582031 25.441406 24.582031 25.441406 24.417969 25.582031 C 24.191406 25.65625 23.988281 25.6875 23.75 25.667969 C 23.46875 25.492188 23.425781 25.363281 23.332031 25.046875 C 23.332031 24.75 23.332031 24.75 23.453125 24.503906 C 23.710938 24.300781 23.851562 24.269531 24.175781 24.292969 Z M 24.175781 24.292969 "/>
<path style=" stroke:none;fill-rule:nonzero;fill:rgb(16.078432%,31.764707%,59.215689%);fill-opacity:1;" d="M 30.550781 28.5 C 30.96875 28.625 30.96875 28.625 31.082031 28.832031 C 31.144531 29.398438 31.144531 29.398438 30.953125 29.707031 C 30.671875 29.882812 30.492188 29.878906 30.167969 29.832031 C 29.964844 29.703125 29.964844 29.703125 29.832031 29.5 C 29.773438 29.132812 29.792969 28.976562 30.003906 28.667969 C 30.25 28.5 30.25 28.5 30.550781 28.5 Z M 30.550781 28.5 "/>
</g>
</svg>
